<svg t="1593707994562" class="icon" viewBox="0 0 1024 1024" version="1.1" xmlns="http://www.w3.org/2000/svg" p-id="1201" xmlns:xlink="http://www.w3.org/1999/xlink" width="200" height="200"><defs><style type="text/css"></style></defs><path d="M832 120V88c0-13.254-10.746-24-24-24H216C202.746 64 192 74.746 192 88v32c0 13.254 10.746 24 24 24h145.228c94.186 0 162.612 40.242 186.752 112H216c-13.254 0-24 10.746-24 24v32c0 13.254 10.746 24 24 24h340.774c-8.086 100.214-83.698 159.108-196.82 159.108H216c-13.254 0-24 10.746-24 24v31.614c0 5.97 2.226 11.726 6.242 16.144l350.264 385.278a23.996 23.996 0 0 0 17.758 7.856h43.168c20.798 0 31.752-24.652 17.81-40.086L316.612 576h46.814c154.438 0 267.598-93.158 276.048-240H808c13.254 0 24-10.746 24-24v-32c0-13.254-10.746-24-24-24h-174.676c-9.92-44.176-30.574-81.938-59.636-112H808c13.254 0 24-10.746 24-24z" p-id="1202" fill="#1296db"></path></svg>